<?xml version="1.0" encoding="UTF-8" standalone="no"?><!DOCTYPE svg PUBLIC "-//W3C//DTD SVG 1.1//EN" "http://www.w3.org/Graphics/SVG/1.1/DTD/svg11.dtd"><svg width="135px" height="28px" version="1.1" xmlns="http://www.w3.org/2000/svg" xmlns:xlink="http://www.w3.org/1999/xlink" xml:space="preserve" xmlns:serif="http://www.serif.com/" style="fill-rule:evenodd;clip-rule:evenodd;stroke-miterlimit:10;"><g><g><path d="M24.512,13.798c0,0.483 -0.083,0.908 -0.25,1.274c-0.168,0.365 -0.406,0.647 -0.717,0.844c-0.31,0.198 -0.669,0.296 -1.075,0.296c-0.614,0 -1.11,-0.219 -1.487,-0.658c-0.378,-0.44 -0.567,-1.032 -0.567,-1.778l0,-0.541c0,-0.479 0.085,-0.903 0.254,-1.273c0.17,-0.369 0.41,-0.653 0.72,-0.852c0.311,-0.198 0.668,-0.297 1.072,-0.297c0.405,0 0.761,0.097 1.071,0.292c0.309,0.195 0.548,0.47 0.716,0.827c0.168,0.356 0.256,0.768 0.263,1.238l0,0.628Zm-0.443,-0.571c0,-0.633 -0.144,-1.128 -0.43,-1.487c-0.286,-0.358 -0.679,-0.538 -1.177,-0.538c-0.488,0 -0.877,0.18 -1.167,0.54c-0.29,0.36 -0.435,0.862 -0.435,1.507l0,0.549c0,0.623 0.144,1.117 0.433,1.481c0.289,0.365 0.681,0.547 1.177,0.547c0.502,0 0.895,-0.18 1.176,-0.54c0.282,-0.359 0.423,-0.86 0.423,-1.503l0,-0.556Z" style="fill:#fff;fill-rule:nonzero;"/><path d="M15.561,22.098c0,0.483 -0.084,0.908 -0.251,1.274c-0.167,0.366 -0.406,0.647 -0.717,0.845c-0.31,0.197 -0.668,0.295 -1.075,0.295c-0.614,0 -1.109,-0.219 -1.487,-0.658c-0.378,-0.439 -0.567,-1.032 -0.567,-1.778l0,-0.541c0,-0.479 0.085,-0.903 0.255,-1.273c0.169,-0.369 0.409,-0.653 0.72,-0.851c0.31,-0.199 0.667,-0.298 1.072,-0.298c0.404,0 0.761,0.097 1.07,0.292c0.309,0.195 0.548,0.471 0.716,0.827c0.169,0.356 0.257,0.769 0.264,1.238l0,0.628Zm-0.444,-0.57c0,-0.633 -0.143,-1.129 -0.43,-1.488c-0.286,-0.358 -0.678,-0.537 -1.176,-0.537c-0.489,0 -0.878,0.18 -1.168,0.539c-0.29,0.36 -0.435,0.862 -0.435,1.507l0,0.549c0,0.623 0.144,1.117 0.433,1.481c0.289,0.365 0.681,0.547 1.177,0.547c0.503,0 0.895,-0.18 1.177,-0.539c0.281,-0.36 0.422,-0.861 0.422,-1.504l0,-0.555Z" style="fill:#fff;fill-rule:nonzero;"/><path d="M12.439,7.392l2.595,0l0,0.376l-3.043,0l0,-5.256l0.448,0l0,4.88Z" style="fill:#fff;fill-rule:nonzero;"/><path d="M2.956,14l0,2.14l-0.444,0l0,-5.255l1.791,0c0.546,0 0.977,0.139 1.294,0.419c0.316,0.279 0.474,0.662 0.474,1.151c0,0.493 -0.152,0.874 -0.456,1.142c-0.305,0.269 -0.746,0.403 -1.323,0.403l-1.336,0Zm0,-0.376l1.347,0c0.43,0 0.759,-0.102 0.985,-0.306c0.226,-0.205 0.339,-0.49 0.339,-0.856c0,-0.363 -0.112,-0.653 -0.337,-0.868c-0.225,-0.215 -0.545,-0.325 -0.958,-0.33l-1.376,0l0,2.36Z" style="fill:#fff;fill-rule:nonzero;"/><path d="M2.512,2.512l22,22" style="fill:#fff;fill-rule:nonzero;stroke:#fff;stroke-width:0.5px;"/><path d="M2.512,24.512l22,-22" style="fill:#fff;fill-rule:nonzero;stroke:#fff;stroke-width:0.5px;"/></g><g><path d="M37.785,6.7l3.93,10.443l3.921,-10.443l3.06,0l0,13.625l-2.358,0l0,-4.492l0.234,-6.008l-4.024,10.5l-1.694,0l-4.014,-10.49l0.234,5.998l0,4.492l-2.359,0l0,-13.625l3.07,0Z" style="fill:#fff;fill-rule:nonzero;"/><rect x="53.552" y="6.7" width="2.358" height="13.626" style="fill:#fff;fill-rule:nonzero;"/><path d="M71.546,20.325l-2.368,0l-6.073,-9.667l0,9.667l-2.368,0l0,-13.625l2.368,0l6.092,9.704l0,-9.704l2.349,0l0,13.625Z" style="fill:#fff;fill-rule:nonzero;"/><rect x="76.401" y="6.7" width="2.358" height="13.626" style="fill:#fff;fill-rule:nonzero;"/><path d="M85.083,19.352l6.729,0l0,0.973l-7.889,0l0,-13.625l1.16,0l0,12.652Z" style="fill:#fff;fill-rule:nonzero;"/><path d="M105.398,14.252c0,1.254 -0.216,2.355 -0.65,3.303c-0.434,0.949 -1.053,1.679 -1.858,2.19c-0.804,0.512 -1.734,0.767 -2.788,0.767c-1.591,0 -2.877,-0.569 -3.856,-1.707c-0.98,-1.139 -1.469,-2.675 -1.469,-4.609l0,-1.404c0,-1.242 0.22,-2.341 0.659,-3.299c0.44,-0.958 1.063,-1.694 1.867,-2.208c0.805,-0.515 1.732,-0.773 2.78,-0.773c1.048,0 1.973,0.253 2.775,0.758c0.801,0.506 1.42,1.22 1.857,2.144c0.437,0.923 0.665,1.993 0.683,3.209l0,1.629Zm-1.151,-1.479c0,-1.641 -0.371,-2.926 -1.113,-3.855c-0.743,-0.93 -1.76,-1.395 -3.051,-1.395c-1.267,0 -2.276,0.467 -3.028,1.399c-0.751,0.933 -1.127,2.235 -1.127,3.907l0,1.423c0,1.616 0.374,2.896 1.123,3.841c0.748,0.946 1.765,1.418 3.051,1.418c1.303,0 2.32,-0.466 3.05,-1.399c0.73,-0.933 1.095,-2.232 1.095,-3.898l0,-1.441Z" style="fill:#fff;fill-rule:nonzero;"/><path d="M120.286,14.252c0,1.254 -0.217,2.355 -0.651,3.303c-0.433,0.949 -1.053,1.679 -1.857,2.19c-0.805,0.512 -1.735,0.767 -2.789,0.767c-1.591,0 -2.876,-0.569 -3.856,-1.707c-0.979,-1.139 -1.469,-2.675 -1.469,-4.609l0,-1.404c0,-1.242 0.22,-2.341 0.66,-3.299c0.439,-0.958 1.062,-1.694 1.867,-2.208c0.804,-0.515 1.731,-0.773 2.779,-0.773c1.048,0 1.973,0.253 2.775,0.758c0.801,0.506 1.421,1.22 1.857,2.144c0.437,0.923 0.665,1.993 0.684,3.209l0,1.629Zm-1.152,-1.479c0,-1.641 -0.371,-2.926 -1.113,-3.855c-0.743,-0.93 -1.76,-1.395 -3.051,-1.395c-1.266,0 -2.276,0.467 -3.027,1.399c-0.752,0.933 -1.128,2.235 -1.128,3.907l0,1.423c0,1.616 0.374,2.896 1.123,3.841c0.749,0.946 1.766,1.418 3.051,1.418c1.304,0 2.321,-0.466 3.051,-1.399c0.729,-0.933 1.094,-2.232 1.094,-3.898l0,-1.441Z" style="fill:#fff;fill-rule:nonzero;"/><path d="M126.254,14.776l0,5.549l-1.151,0l0,-13.625l4.642,0c1.416,0 2.534,0.361 3.355,1.085c0.82,0.724 1.23,1.719 1.23,2.985c0,1.279 -0.394,2.267 -1.183,2.962c-0.79,0.696 -1.933,1.044 -3.43,1.044l-3.463,0Zm0,-0.973l3.491,0c1.117,0 1.968,-0.266 2.555,-0.796c0.586,-0.53 0.879,-1.269 0.879,-2.218c0,-0.942 -0.291,-1.692 -0.875,-2.25c-0.583,-0.559 -1.411,-0.844 -2.484,-0.857l-3.566,0l0,6.121Z" style="fill:#fff;fill-rule:nonzero;"/></g></g></svg>