<?xml version="1.0" encoding="UTF-8" standalone="no"?><!DOCTYPE svg PUBLIC "-//W3C//DTD SVG 1.1//EN" "http://www.w3.org/Graphics/SVG/1.1/DTD/svg11.dtd"><svg width="400px" height="400px" version="1.1" xmlns="http://www.w3.org/2000/svg" xmlns:xlink="http://www.w3.org/1999/xlink" xml:space="preserve" xmlns:serif="http://www.serif.com/" style="fill-rule:evenodd;clip-rule:evenodd;stroke-linejoin:round;stroke-miterlimit:2;"><g transform="matrix(520.156,0,0,520.156,-22.3667,281.892)"><path d="M0.195,0L0.124,0C0.098,0 0.078,-0.008 0.064,-0.024C0.05,-0.039 0.043,-0.062 0.043,-0.092L0.043,-0.312C0.043,-0.34 0.05,-0.362 0.065,-0.379C0.079,-0.396 0.099,-0.404 0.124,-0.404L0.195,-0.404C0.22,-0.404 0.24,-0.396 0.255,-0.379C0.269,-0.362 0.276,-0.34 0.276,-0.312L0.276,-0.285C0.276,-0.28 0.275,-0.276 0.273,-0.273C0.271,-0.27 0.268,-0.268 0.263,-0.268L0.256,-0.268C0.247,-0.268 0.243,-0.274 0.243,-0.285L0.243,-0.312C0.243,-0.349 0.227,-0.368 0.195,-0.368L0.124,-0.368C0.093,-0.368 0.077,-0.349 0.077,-0.312L0.077,-0.093C0.077,-0.055 0.093,-0.036 0.124,-0.036L0.195,-0.036C0.227,-0.036 0.243,-0.055 0.243,-0.093L0.243,-0.12C0.243,-0.13 0.247,-0.135 0.256,-0.135L0.263,-0.135C0.267,-0.135 0.27,-0.133 0.273,-0.13C0.275,-0.127 0.276,-0.123 0.276,-0.12L0.276,-0.092C0.276,-0.062 0.269,-0.039 0.255,-0.024C0.241,-0.008 0.221,0 0.195,0Z" style="fill-rule:nonzero;"/></g><g transform="matrix(520.156,0,0,520.156,98.8296,281.892)"><path d="M0.195,0L0.124,0C0.098,0 0.078,-0.008 0.064,-0.024C0.05,-0.039 0.043,-0.062 0.043,-0.092L0.043,-0.312C0.043,-0.34 0.05,-0.362 0.065,-0.379C0.079,-0.396 0.099,-0.404 0.124,-0.404L0.195,-0.404C0.22,-0.404 0.24,-0.396 0.255,-0.379C0.269,-0.362 0.276,-0.34 0.276,-0.312L0.276,-0.285C0.276,-0.28 0.275,-0.276 0.273,-0.273C0.271,-0.27 0.268,-0.268 0.263,-0.268L0.256,-0.268C0.247,-0.268 0.243,-0.274 0.243,-0.285L0.243,-0.312C0.243,-0.349 0.227,-0.368 0.195,-0.368L0.124,-0.368C0.093,-0.368 0.077,-0.349 0.077,-0.312L0.077,-0.093C0.077,-0.055 0.093,-0.036 0.124,-0.036L0.195,-0.036C0.227,-0.036 0.243,-0.055 0.243,-0.093L0.243,-0.12C0.243,-0.13 0.247,-0.135 0.256,-0.135L0.263,-0.135C0.267,-0.135 0.27,-0.133 0.273,-0.13C0.275,-0.127 0.276,-0.123 0.276,-0.12L0.276,-0.092C0.276,-0.062 0.269,-0.039 0.255,-0.024C0.241,-0.008 0.221,0 0.195,0Z" style="fill-rule:nonzero;"/></g><g transform="matrix(520.156,0,0,520.156,218.466,281.892)"><path d="M0.336,0L0.328,0C0.319,0 0.315,-0.005 0.315,-0.014L0.315,-0.32L0.218,-0.093C0.215,-0.087 0.209,-0.084 0.202,-0.084L0.193,-0.084C0.186,-0.084 0.181,-0.087 0.178,-0.093L0.081,-0.322L0.081,-0.014C0.081,-0.011 0.08,-0.008 0.078,-0.005C0.076,-0.002 0.073,0 0.068,0L0.06,0C0.051,0 0.046,-0.005 0.046,-0.014L0.046,-0.389C0.046,-0.399 0.051,-0.404 0.06,-0.404L0.075,-0.404C0.081,-0.404 0.085,-0.401 0.087,-0.396L0.198,-0.136L0.307,-0.396C0.309,-0.401 0.313,-0.404 0.32,-0.404L0.336,-0.404C0.341,-0.404 0.344,-0.402 0.346,-0.399C0.348,-0.396 0.349,-0.392 0.349,-0.389L0.349,-0.014C0.349,-0.011 0.348,-0.008 0.346,-0.005C0.344,-0.002 0.341,0 0.336,0Z" style="fill-rule:nonzero;"/></g></svg>