<?xml version="1.0" encoding="UTF-8" standalone="no"?><!DOCTYPE svg PUBLIC "-//W3C//DTD SVG 1.1//EN" "http://www.w3.org/Graphics/SVG/1.1/DTD/svg11.dtd"><svg width="400px" height="480px" version="1.1" xmlns="http://www.w3.org/2000/svg" xmlns:xlink="http://www.w3.org/1999/xlink" xml:space="preserve" xmlns:serif="http://www.serif.com/" style="fill-rule:evenodd;clip-rule:evenodd;stroke-linejoin:round;stroke-miterlimit:2;"><g transform="matrix(0.244602,0,0,0.244426,-57.4426,0.118058)"><path d="M760.925,1963.81C643.176,1912.91 532.993,1783.55 532.729,1651.19C532.409,1506.88 623.861,1384.37 737.605,1303.85C723.931,1355.51 716.473,1402.77 750.35,1448.98C781.843,1491.94 837.001,1512.82 889.083,1501.49C1010.78,1474.85 1016.36,1341.07 944.216,1263.12C872.884,1185.94 803.88,1098.75 831.031,986.817C844.623,930.706 879.076,878.147 922.722,840.578C889.173,928.741 984.507,1015.69 1047.32,1059C1156.28,1134.13 1275.83,1190.92 1376.01,1279C1481.39,1371.57 1559.21,1496.74 1543.5,1641.91C1526.47,1799.26 1401.44,1908.69 1261.19,1963.94C1557.55,1898.53 1863.77,1668.52 1870.05,1339.84C1875.24,1069.44 1689.75,861.34 1459.97,742.202L1447.96,735.648C1454.27,750.951 1456.33,763.967 1456.09,775.619C1458.15,767.026 1459.55,758.195 1459.94,749.084C1459.88,759.907 1458.47,770.681 1455.73,781.152L1456.09,775.619C1452.68,789.974 1446.93,803.672 1439.08,816.164L1442.45,812.538C1396.61,888.573 1272.51,905.084 1211.2,826.352C1112.64,699.707 1213.26,563.162 1227.34,429.05C1244.96,260.971 1139.55,97.8 1008.86,0.156C1080.84,116.597 986.012,270.649 910.141,356.773C836.573,440.257 747.102,509.961 665.887,585.815C578.645,667.285 494.774,753.105 423.064,848.726C279.644,1040.12 191.843,1280.83 256.366,1519.6C320.848,1758.2 527.533,1910.09 760.933,1963.8L760.925,1963.81Z" style="fill:white;fill-rule:nonzero;"/></g></svg>